<svg xmlns="http://www.w3.org/2000/svg" width="32" height="27" viewBox="0 0 32 27" fill="none"><path d="M31.3973 4.49201H26.0339V0.587372C26.0339 0.262921 25.7642 0 25.4314 0H6.56699C6.23416 0 5.96444 0.262915 5.96444 0.587372V4.49201H0.602542C0.269711 4.49201 0 4.75492 0 5.07938V25.9183C0 26.2427 0.269705 26.5056 0.602542 26.5056H31.3975C31.7303 26.5056 32 26.2427 32 25.9183V5.07938C32 4.75493 31.7303 4.49201 31.3975 4.49201H31.3973ZM7.16959 1.17476H24.8288V4.49201H7.16959V1.17476ZM1.20519 5.66671H30.7949V9.37158C28.4856 13.9165 24.1462 17.116 19.0713 18.0457V17.2737C19.0713 15.624 17.6935 14.2816 16.0002 14.2816H15.9995H15.9988C14.3062 14.2816 12.929 15.6237 12.929 17.2737V18.0457C7.85328 17.1164 3.51359 13.9166 1.20535 9.37158L1.20519 5.66671ZM14.134 18.7402V18.7384V17.2737C14.134 16.2716 14.9712 15.4563 16 15.4563C17.0289 15.4563 17.8659 16.2716 17.8659 17.2737V19.3364C17.8659 20.3373 17.0288 21.1515 16 21.1515H15.9988C14.9704 21.1515 14.134 20.3373 14.134 19.3364L14.134 18.7402ZM1.20519 25.3307V11.7285C3.87384 15.6862 8.10054 18.4174 12.9288 19.2397V19.3369C12.9288 20.9855 14.306 22.3266 15.9986 22.3266H15.9998C17.6931 22.3266 19.0709 20.9854 19.0709 19.3369V19.2397C23.8986 18.4178 28.1251 15.6863 30.7951 11.7279V25.3307H1.20519Z" fill="#135C51"/></svg>