<svg xmlns="http://www.w3.org/2000/svg" width="35" height="29" viewBox="0 0 35 29" fill="none"><path d="M33.4871 4.91474H27.7668V0.642648C27.7668 0.287663 27.4791 0 27.1241 0H7.00409C6.64911 0 6.36144 0.287657 6.36144 0.642648V4.91474H0.642648C0.287663 4.91474 0 5.20239 0 5.55738V28.3574C0 28.7123 0.287657 29 0.642648 29H33.4873C33.8423 29 34.1299 28.7123 34.1299 28.3574V5.55738C34.1299 5.2024 33.8423 4.91474 33.4873 4.91474H33.4871ZM7.6468 1.28531H26.4814V4.91474H7.6468V1.28531ZM1.28541 6.19999H32.8446V10.2535C30.3816 15.2261 25.7534 18.7268 20.3407 19.7439V18.8993C20.3407 17.0943 18.8712 15.6256 17.0652 15.6256H17.0644H17.0637C15.2584 15.6256 13.7895 17.094 13.7895 18.8993V19.7439C8.376 18.7272 3.74746 15.2263 1.28558 10.2535L1.28541 6.19999ZM15.0748 20.5038V20.5018V18.8993C15.0748 17.8029 15.9676 16.9109 17.0649 16.9109C18.1623 16.9109 19.0551 17.8029 19.0551 18.8993V21.1561C19.0551 22.2512 18.1622 23.142 17.0649 23.142H17.0637C15.9668 23.142 15.0748 22.2512 15.0748 21.1561L15.0748 20.5038ZM1.28541 27.7145V12.8322C4.13169 17.1624 8.63972 20.1506 13.7894 21.0503V21.1566C13.7894 22.9604 15.2583 24.4277 17.0635 24.4277H17.0648C18.8708 24.4277 20.3402 22.9603 20.3402 21.1566V21.0503C25.4893 20.1511 29.9971 17.1625 32.8448 12.8316V27.7145H1.28541Z" fill="white"/></svg>