<svg xmlns="http://www.w3.org/2000/svg" width="19" height="26" viewBox="0 0 19 26" fill="none"><path d="M17.836 5.14172L17.7942 5.09991C15.286 0.376223 10.8965 0 9.6009 0H9.35008H9.09927C7.80339 0 3.37208 0.376223 0.863923 5.09991V5.14172C0.780318 5.35073 -1.39342 10.0329 1.49096 14.7147L1.57457 14.8401C1.90899 15.3418 3.12126 17.2229 3.28847 17.4737C3.37208 17.5991 3.49748 18.0589 3.53929 18.7696V21.0269V21.9466C3.58109 22.8244 4.20813 23.4933 5.04418 23.6187C5.4204 23.6605 5.83843 23.7023 6.38186 23.7441H6.42366C6.92529 24.7474 8.09577 25.3744 9.39165 25.3744C10.0187 25.3744 10.6039 25.2072 11.1056 24.9564C11.6072 24.6638 12.0252 24.2875 12.276 23.7859H12.3596C12.7777 23.7859 13.1121 23.7441 13.4047 23.7441C14.5752 23.6187 15.244 22.7826 15.2022 21.654C15.2022 21.4868 15.1604 21.3195 15.1604 21.1105C15.1604 20.9433 15.1186 20.7761 15.1186 20.6925C15.1186 20.6089 15.1186 20.3163 15.1604 19.9819C15.1604 19.5638 15.2022 18.8532 15.2022 18.7278C15.244 18.3098 15.3276 17.8081 15.453 17.5991C15.6202 17.3483 16.8325 15.4672 17.1669 14.9656L17.2505 14.8401C20.0931 10.0331 17.9194 5.30916 17.8358 5.14195L17.836 5.14172ZM16.3311 14.129L16.2475 14.2544C15.9131 14.7561 14.7008 16.6372 14.5336 16.8462C14.241 17.2642 14.1574 17.8913 14.1156 18.4347C14.1156 18.6019 14.0738 19.0617 14.0738 19.8142V20.483C14.0738 20.692 14.0738 20.901 14.1156 21.1101C14.1156 21.2355 14.1574 21.4027 14.1574 21.5281C14.1992 22.1551 13.9066 22.4895 13.2795 22.5313C13.0287 22.5731 12.7361 22.5731 12.3599 22.5731C11.6492 22.5731 11.4402 22.9912 11.3566 23.1166C11.1894 23.4092 10.9386 23.7018 10.6042 23.869C10.2697 24.078 9.85171 24.1616 9.39189 24.1616C8.47223 24.1616 7.67798 23.7436 7.34356 23.0748C7.17635 22.7404 6.88373 22.5731 6.46571 22.5731C5.96407 22.5313 5.58785 22.5313 5.25343 22.4477C4.87721 22.4059 4.62639 22.1133 4.62639 21.7371V20.8592V18.5601C4.58459 18.0585 4.50099 17.1806 4.20837 16.7208C4.04116 16.47 2.82888 14.6307 2.53626 14.129L2.45266 14.0036C-0.1391 9.82336 1.82562 5.64311 1.90923 5.43386C4.04116 1.37901 7.97084 1.04459 9.09927 1.04459H9.30828H9.39189H9.6009C10.7296 1.04459 14.6592 1.37901 16.8745 5.55926V5.60107C17 5.81008 18.8811 9.99033 16.3311 14.1288V14.129Z" fill="white"/><path d="M12.6529 17.5154H5.83933C5.54671 17.5154 5.2959 17.7662 5.2959 18.0588C5.2959 18.3514 5.54671 18.6022 5.83933 18.6022H12.6529C12.9455 18.6022 13.1963 18.3514 13.1963 18.0588C13.1963 17.7662 12.9455 17.5154 12.6529 17.5154Z" fill="white"/><path d="M7.3022 13.1678C7.38581 13.4604 7.67843 13.5859 7.92924 13.544C8.22186 13.4604 8.34727 13.1678 8.30546 12.917L6.59156 6.93948V6.81408C6.59156 6.77227 6.63336 6.77227 6.67517 6.73047C8.47268 6.22884 10.2702 6.22884 12.0259 6.73047C12.0677 6.73047 12.1095 6.77227 12.1095 6.81408C12.1513 6.85588 12.1513 6.89768 12.1095 6.93948L10.3956 12.917C10.312 13.2096 10.4792 13.5022 10.7718 13.544H10.8972C11.1062 13.544 11.3152 13.3768 11.3989 13.1678L13.1128 7.1903C13.1964 6.89768 13.1546 6.52146 12.9874 6.27064C12.8201 5.97802 12.5693 5.76901 12.2767 5.68541C10.312 5.14197 8.30546 5.14197 6.34074 5.68541C6.04813 5.76901 5.79731 5.97802 5.6301 6.27064C5.46289 6.56326 5.42109 6.89768 5.50469 7.1903L7.3022 13.1678Z" fill="white"/></svg>