<svg xmlns="http://www.w3.org/2000/svg" width="25" height="27" viewBox="0 0 25 27" fill="none"><path d="M19.3968 6.03509C19.5642 6.03528 19.7166 5.93869 19.7876 5.78726C19.8588 5.63582 19.8357 5.45687 19.7287 5.32814L15.4184 0.155863C15.3365 0.0571512 15.2149 0 15.0865 0C14.9582 0 14.8366 0.0571512 14.7546 0.155863L10.4444 5.32814C10.3374 5.45687 10.3143 5.63582 10.3855 5.78726C10.4565 5.93869 10.6089 6.03529 10.7763 6.03509H12.0694V10.104L10.2462 7.9145V7.91431C10.1642 7.8156 10.0426 7.75844 9.91423 7.75844C9.78588 7.75844 9.66428 7.8156 9.5823 7.91431L5.27207 13.0866C5.16508 13.2153 5.14199 13.3943 5.21319 13.5457C5.28419 13.6971 5.43659 13.7937 5.604 13.7935H6.89707V18.2935L5.07386 16.104V16.1038C4.99189 16.0051 4.87028 15.9479 4.74194 15.9479C4.61359 15.9479 4.49198 16.0051 4.41001 16.1038L0.0997779 21.2761C-0.00720945 21.4048 -0.0302974 21.5837 0.0408978 21.7352C0.111901 21.8866 0.2643 21.9832 0.431705 21.983H1.72477V26.2932C1.72477 26.4075 1.77019 26.5172 1.851 26.598C1.93182 26.6788 2.0415 26.7243 2.1558 26.7243H17.6726C17.7869 26.7243 17.8966 26.6788 17.9774 26.598C18.0582 26.5172 18.1037 26.4075 18.1037 26.2932V24.6984C18.6567 24.898 19.2399 25 19.8277 25.0002C21.6756 25.0002 23.3831 24.0144 24.3071 22.414C25.231 20.8137 25.231 18.8421 24.3071 17.2418C23.3831 15.6414 21.6756 14.6556 19.8277 14.6556C19.2399 14.6558 18.6567 14.7578 18.1037 14.9573V6.0354L19.3968 6.03509ZM6.89708 21.5519V25.8622H2.58685V21.5519C2.58685 21.4376 2.54144 21.3279 2.46062 21.2471C2.37981 21.1663 2.27012 21.1209 2.15583 21.1209H1.34979L4.74197 17.0519L8.13414 21.1209H7.3281C7.09008 21.1209 6.89708 21.3139 6.89708 21.5519ZM12.0694 13.3625V25.8622H7.75913V21.9829H9.0522C9.2196 21.9831 9.372 21.8865 9.443 21.7351C9.5142 21.5837 9.49111 21.4047 9.38413 21.276L7.75914 19.3279V13.3626C7.75914 13.2483 7.71373 13.1386 7.63291 13.0578C7.5521 12.9769 7.44242 12.9315 7.32812 12.9315H6.52208L9.91426 8.86258L13.3064 12.9315H12.5004C12.2624 12.9315 12.0694 13.1245 12.0694 13.3626L12.0694 13.3625ZM19.8278 15.5176C20.9709 15.5176 22.0672 15.9717 22.8755 16.7801C23.6839 17.5884 24.138 18.6847 24.138 19.8278C24.138 20.971 23.6839 22.0672 22.8755 22.8756C22.0672 23.6839 20.9709 24.1381 19.8278 24.1381C18.6846 24.1381 17.5884 23.6839 16.78 22.8756C15.9717 22.0672 15.5175 20.971 15.5175 19.8278C15.5175 18.6847 15.9717 17.5884 16.78 16.7801C17.5884 15.9717 18.6846 15.5176 19.8278 15.5176ZM17.6727 5.17305C17.4346 5.17305 17.2416 5.36605 17.2416 5.60407V15.3541C15.6465 16.2794 14.6648 17.9839 14.6648 19.828C14.6648 21.6722 15.6465 23.3767 17.2416 24.302V25.8624H12.9314V13.7937H14.2245C14.3919 13.7939 14.5443 13.6973 14.6153 13.5459C14.6865 13.3944 14.6634 13.2155 14.5564 13.0868L12.9314 11.1387V5.60434C12.9314 5.49004 12.886 5.38036 12.8052 5.29954C12.7244 5.21873 12.6147 5.17332 12.5004 5.17332H11.6944L15.0865 1.10436L18.4787 5.17332L17.6727 5.17305Z" fill="#135C51"/><path d="M18.7627 21.8712C18.8758 21.8706 18.9842 21.8258 19.0644 21.7461L22.4135 18.3928L21.8101 17.7849L18.7627 20.8323L17.8446 19.9185L17.2412 20.5263L18.461 21.7461C18.5412 21.8258 18.6497 21.8706 18.7627 21.8712V21.8712Z" fill="#135C51"/></svg>