<svg xmlns="http://www.w3.org/2000/svg" width="37" height="28" viewBox="0 0 37 28" fill="none"><path d="M1 14.9336H9.9218V25.8629H1V14.9336Z" stroke="#135C51" stroke-miterlimit="10"/><path d="M7.43244 18.1752C7.43244 18.5815 7.10315 18.9107 6.69717 18.9107C6.29119 18.9107 5.96191 18.5815 5.96191 18.1752C5.96191 17.7691 6.29106 17.4399 6.69717 17.4399C7.10329 17.4399 7.43244 17.7691 7.43244 18.1752Z" fill="#5463FF" stroke="#135C51"/><path d="M35.497 17.8253C34.9725 16.9346 33.8243 16.636 32.9317 17.1612L22.9257 23.0471L18.3273 21.2201C18.3273 21.2201 17.6602 20.9729 18.118 19.9372C18.539 18.9883 19.1697 19.3108 19.1697 19.3108L22.3138 20.5236C22.5352 20.6083 22.7641 20.6498 22.9885 20.6498C23.7396 20.6498 24.4497 20.1935 24.7361 19.4507C25.1092 18.4858 24.6288 17.4007 23.6624 17.0284L15.2914 13.796C14.978 13.6744 14.6499 13.6382 14.3425 13.6979C11.6316 14.2291 9.9209 15.3698 9.9209 15.3698V23.9146C9.9209 23.9146 11.9647 23.7279 12.6447 23.7279C14.05 23.7279 15.7523 24.2311 15.7523 24.2311L22.3939 26.8686C22.6168 26.9561 22.8503 27.0002 23.0845 27.0002C23.4154 27.0002 23.7433 26.9134 24.035 26.7419L34.8313 20.3913C35.7243 19.8661 36.0221 18.7179 35.497 17.8253Z" stroke="#135C51" stroke-miterlimit="10"/><path d="M12.7486 14.1825C12.3195 13.0899 12.083 11.9006 12.083 10.6555C12.083 5.32263 16.4057 1 21.7392 1C27.0727 1 31.3932 5.3227 31.3932 10.6555C31.3932 15.0341 28.4788 18.7325 24.4842 19.915" stroke="#135C51" stroke-miterlimit="10"/><path d="M22.4691 13.3736L22.1387 13.4283V13.4186L22.0687 13.4174C22.5911 13.3809 23.0617 13.2091 23.4219 12.9096C23.8367 12.5647 24.079 12.0698 24.079 11.5051C24.079 10.9683 23.8806 10.5212 23.5169 10.1552C23.1711 9.80728 22.6886 9.54481 22.1305 9.31827L22.1306 9.31824L22.1247 9.31596C21.4021 9.0331 20.8793 8.7508 20.539 8.42401C20.2197 8.11748 20.0519 7.76422 20.0519 7.27606C20.0519 6.54801 20.4536 5.93185 21.1893 5.61765C21.0423 5.69714 20.9113 5.79361 20.7972 5.9054C20.4456 6.24958 20.2982 6.69534 20.2982 7.10233C20.2982 7.63161 20.5008 8.04946 20.8961 8.39277C21.2559 8.70516 21.7748 8.95501 22.4041 9.21466L22.4056 9.21528C23.12 9.50726 23.5996 9.81215 23.9007 10.1544C24.1876 10.4806 24.3387 10.8703 24.3387 11.4037C24.3387 12.2915 23.7316 13.1644 22.4691 13.3736ZM20.0421 13.0232C20.4294 13.2012 20.8744 13.336 21.3493 13.3938C20.858 13.3488 20.3868 13.218 20.0325 13.05L20.0421 13.0232ZM23.8845 5.65688C23.6801 5.57242 23.4339 5.49104 23.1453 5.43444C23.4392 5.48059 23.6848 5.55411 23.8913 5.63891L23.8845 5.65688Z" fill="black" stroke="#135C51"/></svg>