<svg xmlns="http://www.w3.org/2000/svg" width="25" height="25" viewBox="0 0 25 25" fill="none"><path d="M14.8382 10.042C14.0709 10.2047 13.3009 10.3673 12.5337 10.53C11.4465 10.7605 10.3567 10.9909 9.26951 11.2213C8.67575 11.3461 8.08204 11.4735 7.4856 11.5982C6.56653 11.7934 5.64746 11.9886 4.72566 12.1811C3.81745 12.3736 2.91191 12.5661 2.00369 12.7559C1.97116 12.764 1.93863 12.7694 1.90338 12.7776C2.05521 12.8399 2.20974 12.9023 2.36157 12.9646C2.01454 12.3655 1.66752 11.7636 1.32322 11.1645C1.2717 11.0777 1.22291 10.9882 1.17139 10.9015C1.14971 11.0669 1.12802 11.2295 1.10904 11.3949C1.40184 11.0696 1.69462 10.7415 1.99014 10.4162C2.69504 9.63266 3.39722 8.84917 4.10213 8.06564C4.95343 7.11945 5.80474 6.17054 6.65604 5.2244C7.39074 4.40834 8.12276 3.59229 8.85747 2.77624C9.10147 2.50512 9.34276 2.23671 9.58676 1.96559C9.70063 1.83816 9.82534 1.71616 9.93108 1.58061C9.9365 1.57518 9.94192 1.56976 9.94734 1.56434C9.73316 1.53723 9.5217 1.51011 9.30753 1.48301C9.48375 1.78665 9.65998 2.0903 9.83347 2.39667C10.2537 3.12597 10.6766 3.858 11.0968 4.58729C11.6038 5.46571 12.1108 6.34681 12.6205 7.22523C13.0624 7.98978 13.5016 8.7516 13.9435 9.51614C14.1577 9.88757 14.3611 10.2671 14.5861 10.6277C14.5888 10.6331 14.5915 10.6386 14.5942 10.644C14.7027 10.8338 14.9629 10.9015 15.15 10.7904C15.3398 10.6792 15.4048 10.4244 15.2964 10.2346C15.1202 9.93095 14.9439 9.6273 14.7705 9.32093C14.3502 8.59163 13.9273 7.8596 13.5071 7.1303C13.0001 6.25188 12.4931 5.37079 11.9834 4.49237C11.5415 3.72782 11.1024 2.966 10.6604 2.20146C10.4462 1.83003 10.2429 1.4505 10.0178 1.08989C10.0151 1.08446 10.0124 1.07904 10.0097 1.07362C9.885 0.85673 9.54611 0.794374 9.3699 0.992288C9.0771 1.31762 8.78432 1.64569 8.4888 1.971C7.78389 2.75453 7.08171 3.53801 6.37681 4.32155C5.52551 5.26774 4.6742 6.21665 3.8229 7.16279C3.0882 7.97884 2.35617 8.7949 1.62147 9.61095C1.2636 10.0095 0.897578 10.3999 0.547875 10.8038C0.542453 10.8092 0.537031 10.8147 0.531609 10.8201C0.40961 10.9557 0.374362 11.1509 0.469253 11.3135C0.816278 11.9127 1.1633 12.5146 1.5076 13.1137C1.55912 13.2004 1.60791 13.2899 1.65943 13.3767C1.75432 13.5393 1.94138 13.6017 2.11761 13.5637C3.02855 13.3712 3.93949 13.1788 4.8477 12.9863C5.64205 12.8182 6.43643 12.6501 7.2281 12.482C7.91129 12.3383 8.59181 12.1946 9.275 12.0482C10.2727 11.8368 11.2731 11.6253 12.2708 11.4138C13.179 11.2213 14.0954 11.0478 14.9982 10.8364C15.0145 10.8337 15.0308 10.8282 15.047 10.8255C15.2612 10.7794 15.3859 10.5273 15.3317 10.324C15.2775 10.1017 15.0552 9.99592 14.8383 10.042L14.8382 10.042Z" fill="white"/><path d="M2.77702 13.6748C2.18872 12.6581 1.60309 11.6388 1.01478 10.6221C0.930736 10.4784 0.849403 10.3347 0.765359 10.191C0.656913 10.0012 0.396644 9.93345 0.209573 10.0446C0.019795 10.1558 -0.0452723 10.4106 0.063173 10.6004C0.65148 11.6171 1.23711 12.6364 1.82542 13.6531C1.90946 13.7968 1.99079 13.9405 2.07484 14.0842C2.18328 14.274 2.44355 14.3417 2.63062 14.2306C2.82311 14.1194 2.88818 13.8646 2.77702 13.6748Z" fill="white"/><path d="M8.89813 0.770311C9.10147 1.12005 9.30209 1.47249 9.50543 1.82224C9.99072 2.66541 10.4787 3.50586 10.964 4.34903C11.5523 5.36839 12.1406 6.3878 12.729 7.40722C13.2387 8.28831 13.7457 9.16946 14.2554 10.0479C14.5021 10.4735 14.7352 10.91 14.9955 11.3302C14.9982 11.3357 15.0009 11.3411 15.0064 11.3465C15.1148 11.5363 15.3751 11.6041 15.5621 11.4929C15.7519 11.3817 15.817 11.1269 15.7085 10.9371C15.5052 10.5874 15.3046 10.2349 15.1012 9.88518C14.616 9.04201 14.1279 8.20157 13.6427 7.3584C13.0543 6.33903 12.466 5.31962 11.8777 4.30021C11.368 3.41911 10.861 2.53797 10.3513 1.65955C10.1046 1.2339 9.87145 0.797389 9.61116 0.377192C9.60845 0.371769 9.60574 0.366347 9.60032 0.360924C9.49187 0.171146 9.23161 0.103367 9.04453 0.214525C8.85476 0.325682 8.78969 0.580527 8.89813 0.77031V0.770311Z" fill="white"/><path d="M14.7032 4.93978C15.3105 4.59004 15.915 4.24032 16.5223 3.89057C16.6091 3.83906 16.6958 3.79026 16.7853 3.73875C16.9751 3.6303 17.0429 3.37003 16.9317 3.18296C16.8206 2.99318 16.5657 2.92812 16.3759 3.03656C15.7686 3.3863 15.1641 3.73602 14.5568 4.08577C14.47 4.13728 14.3833 4.18608 14.2938 4.23759C14.104 4.34604 14.0362 4.6063 14.1474 4.79338C14.2585 4.98315 14.5107 5.04822 14.7032 4.93978Z" fill="white"/><path d="M13.2472 2.59738C13.6403 2.0172 14.0334 1.4397 14.4238 0.859523C14.4807 0.775479 14.5377 0.691434 14.5946 0.610101C14.7166 0.428454 14.6298 0.160054 14.4482 0.0543159C14.2476 -0.0622647 14.0144 0.019071 13.8924 0.200716C13.4993 0.780892 13.1062 1.35839 12.7158 1.93857C12.6589 2.02261 12.6019 2.10666 12.545 2.18799C12.423 2.36964 12.5098 2.63804 12.6914 2.74378C12.892 2.86036 13.1225 2.78173 13.2472 2.59738Z" fill="white"/><path d="M15.5975 7.4799C16.2943 7.42839 16.9937 7.37959 17.6905 7.32808C17.7908 7.31994 17.8911 7.31452 17.9915 7.30639C18.2029 7.29012 18.409 7.13016 18.3981 6.89972C18.39 6.69367 18.2192 6.47678 17.9915 6.49305C17.2947 6.54456 16.5952 6.59336 15.8984 6.64487C15.7981 6.65301 15.6978 6.65843 15.5975 6.66656C15.386 6.68283 15.18 6.84279 15.1908 7.07323C15.199 7.27927 15.3698 7.49617 15.5975 7.4799Z" fill="white"/><path d="M8.61588 11.6881V12.5448C8.61588 12.599 8.61588 12.6505 8.61317 12.7047C8.61046 12.7427 8.60775 12.7807 8.60233 12.8186C8.61317 12.7264 8.5969 12.8457 8.59419 12.8566C8.58064 12.9298 8.56166 13.0003 8.53997 13.0707C8.53184 13.0951 8.47219 13.2524 8.50472 13.1765C8.48032 13.2307 8.45321 13.2849 8.4261 13.3391C8.39628 13.3907 8.36646 13.4422 8.33392 13.4937C8.31494 13.5235 8.29325 13.5533 8.27157 13.5804C8.32308 13.5127 8.24445 13.6103 8.23361 13.6238C8.19023 13.6726 8.14414 13.7187 8.09805 13.7648C8.07907 13.7838 7.95165 13.8868 8.01672 13.838C7.91099 13.9166 7.79712 13.9871 7.68054 14.0413C7.6697 14.0468 7.56125 14.0901 7.6453 14.0576C7.61819 14.0684 7.58836 14.0793 7.56125 14.0901C7.4989 14.1118 7.43383 14.1308 7.36876 14.1444C7.34436 14.1498 7.31996 14.1552 7.29556 14.1606C7.28472 14.1633 7.16271 14.1796 7.2576 14.1688C7.18169 14.1769 7.10578 14.1823 7.02987 14.1823H6.83466C6.77231 14.1823 6.70724 14.1769 6.64489 14.1742C6.56355 14.1688 6.6232 14.1715 6.64218 14.1742C6.59337 14.1661 6.54457 14.1579 6.49578 14.1471C6.43613 14.1335 6.37649 14.1172 6.31955 14.0983C6.28431 14.0874 6.25177 14.0739 6.21653 14.0603C6.28431 14.0874 6.22737 14.0657 6.21382 14.0576C6.08368 13.9952 5.95897 13.9248 5.8451 13.838C5.85866 13.8488 5.89933 13.8868 5.84239 13.8353C5.80715 13.8028 5.76919 13.7729 5.73666 13.7404C5.68515 13.6916 5.63906 13.6374 5.59026 13.5832C5.51435 13.4991 5.61737 13.6211 5.5767 13.5669C5.5523 13.5344 5.5279 13.4991 5.50621 13.4639C5.46826 13.4042 5.4303 13.3419 5.40048 13.2768C5.38421 13.2443 5.36795 13.2117 5.35439 13.1792C5.38963 13.2605 5.34626 13.1494 5.34355 13.1412C5.31914 13.0735 5.30017 13.003 5.28119 12.9298C5.27306 12.8945 5.26763 12.8566 5.2595 12.8213C5.24052 12.7264 5.2595 12.8701 5.25408 12.7807C5.24866 12.7102 5.24595 12.6424 5.24595 12.5719C5.14564 12.702 5.04803 12.8322 4.94772 12.965C6.17044 12.7048 7.39588 12.4472 8.6186 12.1869C8.7894 12.1517 8.96292 12.1137 9.13374 12.0785C9.34792 12.0324 9.47263 11.7803 9.41841 11.5769C9.35605 11.3546 9.13374 11.2462 8.91685 11.2923C7.69414 11.5525 6.46869 11.8101 5.24597 12.0704C5.07517 12.1056 4.90166 12.1436 4.73084 12.1788C4.55733 12.2168 4.43262 12.4011 4.43262 12.5719C4.43262 13.2226 4.6956 13.8597 5.16464 14.3124C5.62554 14.7571 6.23556 14.9902 6.87265 14.993C7.14918 14.993 7.42571 14.9767 7.69143 14.9008C8.01677 14.8059 8.30685 14.6432 8.56985 14.4318C9.07413 14.017 9.37505 13.3934 9.42388 12.7427C9.45099 12.393 9.4293 12.0378 9.4293 11.6854C9.4293 11.4739 9.24224 11.2679 9.02263 11.2787C8.80303 11.2896 8.61596 11.4604 8.61596 11.6881L8.61588 11.6881Z" fill="white"/><path d="M8.7875 6.84595C9.04235 6.62635 9.2945 6.40675 9.54932 6.18715C9.7147 6.04346 9.69572 5.75879 9.54932 5.61238C9.38394 5.447 9.13994 5.46869 8.97455 5.61238C8.7197 5.83198 8.46754 6.05158 8.21273 6.27118C8.04735 6.41487 8.06633 6.69954 8.21273 6.84595C8.3781 7.01133 8.62211 6.98964 8.7875 6.84595Z" fill="white"/><path d="M2.80132 11.5442C3.34085 11.1159 3.88037 10.6875 4.41985 10.2591C5.27928 9.57595 6.13871 8.89543 6.99542 8.21224C7.19062 8.0577 7.38582 7.90046 7.58373 7.74592C7.75453 7.61037 7.72741 7.31486 7.58373 7.17115C7.41292 7.00035 7.18248 7.03288 7.00895 7.17115C6.46943 7.59951 5.9299 8.02786 5.39043 8.45624C4.531 9.13943 3.67156 9.81995 2.81486 10.5031C2.61966 10.6577 2.42445 10.8149 2.22655 10.9695C2.05575 11.105 2.08286 11.4005 2.22655 11.5442C2.39735 11.715 2.6278 11.6825 2.80132 11.5442Z" fill="white"/><path d="M10.02 19.2271V21.0436V23.9256V24.5925C10.1556 24.4569 10.2911 24.3214 10.4267 24.1858H7.68846H7.29534C7.4309 24.3214 7.56646 24.4569 7.70201 24.5925V22.776V19.8941V19.2271C7.56645 19.3627 7.43089 19.4983 7.29534 19.6338H10.0336H10.4267C10.6381 19.6338 10.8442 19.4468 10.8334 19.2271C10.8225 19.0075 10.6544 18.8205 10.4267 18.8205H7.68846H7.29534C7.07574 18.8205 6.88867 19.0075 6.88867 19.2271V21.0436V23.9256V24.5925C6.88867 24.8121 7.07574 24.9992 7.29534 24.9992H10.0336H10.4267C10.6463 24.9992 10.8334 24.8121 10.8334 24.5925V22.776V19.8941V19.2271C10.8334 19.0157 10.6463 18.8096 10.4267 18.8205C10.2071 18.8286 10.02 18.9967 10.02 19.2271Z" fill="white"/><path d="M16.9038 16.4024V19.1678V23.5761V24.5928C17.0394 24.4572 17.1749 24.3217 17.3105 24.1861H14.5722H14.1791C14.3147 24.3217 14.4502 24.4572 14.5858 24.5928V21.8274V17.4191V16.4024L14.1791 16.8091H16.9174H17.3105C17.5219 16.8091 17.728 16.622 17.7171 16.4024C17.7063 16.1828 17.5382 15.9958 17.3105 15.9958H14.5722H14.1791C13.9595 15.9958 13.7725 16.1828 13.7725 16.4024V19.1678V23.5761V24.5928C13.7725 24.8124 13.9595 24.9994 14.1791 24.9994H16.9174H17.3105C17.5301 24.9994 17.7171 24.8124 17.7171 24.5928V21.8274V17.4191V16.4024C17.7171 16.191 17.5301 15.9849 17.3105 15.9958C17.0882 16.0039 16.9038 16.172 16.9038 16.4024Z" fill="white"/><path d="M24.1915 24.1862H21.4533H21.0602C21.1957 24.3217 21.3313 24.4573 21.4668 24.5929V23.5247V20.9626V17.8638V15.1933C21.4668 14.7596 21.4912 14.3204 21.4668 13.8866V13.8676C21.3313 14.0032 21.1957 14.1387 21.0602 14.2743H23.7984H24.1915C24.0559 14.1387 23.9204 14.0032 23.7848 13.8676V14.9358V17.4978V20.5967V23.2671C23.7848 23.7009 23.7713 24.1401 23.7848 24.5739V24.5929C23.7848 24.8043 23.9719 25.0104 24.1915 24.9995C24.4111 24.9887 24.5982 24.8206 24.5982 24.5929V23.5247V20.9626V17.8638V15.1933C24.5982 14.7596 24.6117 14.3204 24.5982 13.8866V13.8676C24.5982 13.648 24.4111 13.4609 24.1915 13.4609H21.4533H21.0602C20.8406 13.4609 20.6535 13.648 20.6535 13.8676V14.9358V17.4978V20.5967V23.2671C20.6535 23.7009 20.6399 24.1401 20.6535 24.5739V24.5929C20.6535 24.8125 20.8406 24.9995 21.0602 24.9995H23.7984H24.1915C24.403 24.9995 24.609 24.8125 24.5982 24.5929C24.59 24.3705 24.4192 24.1862 24.1915 24.1862Z" fill="white"/><path d="M20.4725 7.32563C21.416 7.20363 22.3568 7.08163 23.3002 6.96234C23.4358 6.94607 23.5686 6.92709 23.7042 6.91082C23.5686 6.77527 23.4331 6.63971 23.2975 6.50416C23.4195 7.44762 23.5415 8.3884 23.6608 9.33186C23.6771 9.46742 23.696 9.60027 23.7123 9.73582C23.7394 9.94729 23.8804 10.1533 24.119 10.1425C24.3169 10.1344 24.5555 9.96084 24.5256 9.73582C24.4037 8.79236 24.2816 7.85157 24.1624 6.90811C24.1461 6.77255 24.1271 6.63971 24.1108 6.50416C24.0864 6.30895 23.9428 6.06766 23.7042 6.09749C22.7607 6.21949 21.8199 6.34149 20.8765 6.46078C20.7409 6.47704 20.6081 6.49602 20.4725 6.51229C20.261 6.5394 20.055 6.68038 20.0658 6.91896C20.074 7.11687 20.2475 7.35545 20.4725 7.32563Z" fill="white"/><path d="M23.2294 6.53105C23.1671 6.62052 23.102 6.70727 23.0342 6.79403C22.9719 6.87536 23.1074 6.69914 23.0396 6.7859C23.0207 6.8103 22.999 6.83741 22.98 6.86181C22.9339 6.91874 22.8905 6.97568 22.8444 7.0299C22.7306 7.17088 22.614 7.30914 22.4947 7.44741C22.1694 7.82155 21.8305 8.18484 21.4807 8.53999C21.0144 9.01173 20.5291 9.46447 20.0276 9.90098C19.7348 10.1558 19.4393 10.4025 19.1383 10.6465C19.0597 10.7089 18.9838 10.7712 18.9052 10.8309C18.8645 10.8634 18.8238 10.896 18.7805 10.9285C18.7615 10.9448 18.7425 10.9583 18.7235 10.9746C18.672 11.0153 18.7913 10.9231 18.7181 10.9773C18.5446 11.1101 18.3711 11.2403 18.1948 11.3704C17.433 11.9316 16.6441 12.4603 15.8334 12.951C14.9116 13.5095 13.9654 14.0246 12.9949 14.4936C12.4662 14.7485 11.9321 14.9898 11.3926 15.2202C11.3194 15.25 11.4333 15.2039 11.3601 15.2338C11.3221 15.25 11.2842 15.2663 11.2462 15.2826C11.1757 15.3124 11.1052 15.3422 11.032 15.3693C10.8883 15.429 10.7446 15.4859 10.5982 15.5428C10.3081 15.6567 10.0181 15.7652 9.72527 15.8736C8.46458 16.3318 7.18222 16.7194 5.88087 17.0421C4.43314 17.4 2.96641 17.6792 1.48883 17.8771C1.53492 17.8717 1.42918 17.8853 1.41562 17.888C1.36953 17.8934 1.32616 17.8988 1.28007 17.9069C1.18789 17.9178 1.09842 17.9313 1.00624 17.9422C0.805618 17.9666 0.607704 17.9883 0.407079 18.01C0.195612 18.0317 -0.0104368 18.1808 0.000410215 18.4166C0.00854349 18.6173 0.179346 18.8477 0.407079 18.8233C1.95784 18.6552 3.49778 18.4112 5.02142 18.0777C6.37155 17.7822 7.70546 17.4162 9.01762 16.9798C10.2268 16.5758 11.4169 16.1095 12.5773 15.5835C13.5994 15.1226 14.5971 14.6102 15.5704 14.0518C16.4271 13.5583 17.2622 13.0242 18.0728 12.4549C18.7886 11.9506 19.4827 11.4166 20.155 10.8553C20.6972 10.4026 21.2232 9.92811 21.7275 9.43737C22.1179 9.05781 22.4947 8.66469 22.858 8.26075C23.0993 7.98964 23.3352 7.71582 23.5575 7.43116C23.6768 7.27934 23.8096 7.12481 23.9126 6.96214C23.9153 6.95672 23.9208 6.9513 23.9235 6.94587C24.0482 6.76423 23.9587 6.49583 23.7771 6.39009C23.5846 6.26809 23.3541 6.34942 23.2294 6.53107L23.2294 6.53105Z" fill="white"/><path d="M3.13818 21.1607V24.1647V24.593L3.54485 24.1864H0.80662H0.413504C0.549062 24.3219 0.68462 24.4575 0.820173 24.593V21.5891V21.1607C0.684615 21.2963 0.549057 21.4319 0.413504 21.5674H3.15173H3.54485C3.75631 21.5674 3.96236 21.3803 3.95151 21.1607C3.94067 20.9411 3.77258 20.7541 3.54485 20.7541H0.80662H0.413504C0.193902 20.7541 0.00683594 20.9411 0.00683594 21.1607V24.1647V24.593C0.00683594 24.8127 0.193902 24.9997 0.413504 24.9997H3.15173H3.54485C3.76445 24.9997 3.95151 24.8127 3.95151 24.593V21.5891V21.1607C3.95151 20.9493 3.76445 20.7432 3.54485 20.7541C3.32524 20.7622 3.13818 20.933 3.13818 21.1607Z" fill="white"/></svg>